<svg xmlns="http://www.w3.org/2000/svg" width="32" height="32" viewBox="0 0 32 32">
  <rect width="32" height="32" rx="6" fill="white" stroke="black" stroke-width="1"/>
  
  <!-- Shopping cart/building icon representing multi-company sales -->
  <g fill="black">
    <!-- Building structure -->
    <rect x="6" y="8" width="8" height="16" rx="1"/>
    <rect x="18" y="10" width="8" height="14" rx="1"/>
    
    <!-- Windows -->
    <rect x="8" y="10" width="1.5" height="1.5" rx="0.2" fill="white"/>
    <rect x="10.5" y="10" width="1.5" height="1.5" rx="0.2" fill="white"/>
    <rect x="8" y="13" width="1.5" height="1.5" rx="0.2" fill="white"/>
    <rect x="10.5" y="13" width="1.5" height="1.5" rx="0.2" fill="white"/>
    <rect x="8" y="16" width="1.5" height="1.5" rx="0.2" fill="white"/>
    <rect x="10.5" y="16" width="1.5" height="1.5" rx="0.2" fill="white"/>
    
    <rect x="20" y="12" width="1.5" height="1.5" rx="0.2" fill="white"/>
    <rect x="22.5" y="12" width="1.5" height="1.5" rx="0.2" fill="white"/>
    <rect x="20" y="15" width="1.5" height="1.5" rx="0.2" fill="white"/>
    <rect x="22.5" y="15" width="1.5" height="1.5" rx="0.2" fill="white"/>
    <rect x="20" y="18" width="1.5" height="1.5" rx="0.2" fill="white"/>
    <rect x="22.5" y="18" width="1.5" height="1.5" rx="0.2" fill="white"/>
    
    <!-- Shopping bag/sales symbol -->
    <path d="M14 20l2-1 2 1v4l-2-1-2 1z"/>
    <circle cx="16" cy="18" r="1.5"/>
  </g>
</svg>